<?xml version="1.0" encoding="utf-8"?>
<!-- Generator: Adobe Illustrator 22.1.0, SVG Export Plug-In . SVG Version: 6.00 Build 0)  -->
<svg version="1.1" id="Layer_1" xmlns="http://www.w3.org/2000/svg" xmlns:xlink="http://www.w3.org/1999/xlink" x="0px" y="0px"
	 viewBox="0 0 157.9 46.3" style="enable-background:new 0 0 157.9 46.3;" xml:space="preserve">
<style type="text/css">
	.st0{fill:#ABD3FF;}
	.st1{fill:#007AFF;}
</style>
<path class="st0" d="M0,43.3c1.3-1.4,2.7-2.6,4.1-3.7c1-0.8,2.1-1.6,3.2-2.2c1.5-0.8,3.1-1.5,4.7-2.1c0.1,0,0.2-0.1,0.3-0.1
	c0,0,0,0,0,0c-0.2-0.4-0.3-0.7-0.5-1.1c-0.2-0.6-0.5-1.1-0.7-1.7c0-0.1-0.1-0.1-0.2-0.2C10,32,9,31.5,8.3,30.6
	c-0.3-0.3-0.5-0.8-0.7-1.2c-0.4-1-0.8-2-0.9-3.1c0-0.3-0.1-0.7-0.1-1c0-2.3,0-4.5,0-6.8c0-0.3,0.1-0.7,0.2-1
	c0.3-1.7,0.6-3.4,1.1-5.1C8.4,11,8.9,9.4,9.4,7.9c0.3-0.9,0.7-1.7,1.2-2.4c0.5-0.7,1.1-1.2,1.9-1.5c1.2-0.5,2.5-0.7,3.8-0.7
	c2.9,0,5.7,0,8.6,0c0.9,0,1.9,0.1,2.8,0.3c2,0.5,3.2,1.9,3.7,3.9c0.2,0.8,0.4,1.7,0.6,2.5c0.4,1.4,0.7,2.8,1.1,4.1
	c0.3,1.1,0.7,2.1,1.1,3.2c0.3,0.9,0.7,1.8,1.1,2.7c0.7,1.4,1.7,2.6,2.9,3.5c1.1,0.9,2.4,1.5,3.7,1.9c1,0.3,2,0.6,3,0.8
	c0.5,0.1,1,0.2,1.5,0.3c0.3,0.1,0.7,0.2,1,0.2c0.3,0.1,0.4,0.3,0.4,0.5c0,0.2,0,0.4,0,0.5c0,1.2,0,2.4,0,3.6c0,0.3,0,0.6,0,1
	c0,0.3-0.2,0.4-0.4,0.5c0,0-0.1,0.1-0.1,0.1c0,0.3,0,0.7,0,1c0,0,0,0,0,0c1.4,0,2.8,0,4.2,0c0,0.3,0,0.6,0,0.9c-0.3,0-0.6,0-1,0
	c-2.2,0-4.5,0-6.7,0c-2.4,0-4.9,0-7.3,0c-2.4,0-4.7,0.5-7,1.4c-0.9,0.4-1.7,0.8-2.5,1.3c-0.7,0.5-1.3,1.1-1.9,1.7
	c-1.8,1.9-3.2,4.1-4,6.5c0,0.1-0.1,0.2-0.1,0.3c-1.6,0-3.3,0-4.9,0c0-0.1,0-0.1,0.1-0.2c0.5-1.1,1.1-2.2,1.7-3.3
	c0.8-1.3,1.6-2.4,2.6-3.5c1.5-1.6,3.3-2.8,5.2-3.8c0.3-0.1,0.6-0.3,0.8-0.4c0,0-0.1,0-0.1,0c-1,0.1-2,0.1-3,0.2
	c-1.5,0.1-3.1,0.3-4.6,0.6c-1.4,0.3-2.8,0.6-4.2,1.1c-1.3,0.5-2.6,1.2-3.8,1.9c-2,1.3-3.8,2.8-5.4,4.6c-0.8,0.9-1.5,1.8-2.1,2.8
	c-1.1,0-2.2,0-3.2,0C0,45.3,0,44.3,0,43.3z M19,9.4c-0.1,0-0.1,0-0.1,0c-2.7,0-5.4,0-8.1,0c-0.1,0-0.1,0-0.2,0.1
	c-0.4,1.6-0.9,3.2-1.3,4.7c-0.1,0.3-0.1,0.5-0.2,0.8c0.1,0,0.1,0,0.2,0c3,0,6.1,0,9.1,0c0,0,0.1,0,0.1,0c0.1,0,0.1,0,0.1-0.1
	c0.1-0.7,0.1-1.4,0.2-2c0.1-0.9,0.2-1.8,0.2-2.7C19,9.9,19,9.6,19,9.4z M28.7,9.4c-2.8,0-5.6,0-8.4,0c-0.2,1.9-0.4,3.8-0.6,5.7
	c3.1,0,6.3,0,9.4,0C29.1,13.1,28.9,11.2,28.7,9.4z M46.3,27.4C46.3,27.4,46.3,27.4,46.3,27.4c-1.1-0.1-2-0.3-3-0.5
	c-1.1-0.3-2.3-0.6-3.4-1.1c-1.1-0.4-2.1-1-2.9-1.7C35.8,23,34.8,21.6,34,20c-0.1-0.2-0.2-0.4-0.3-0.6c0,0,0,0,0,0c0,0,0,0.1,0,0.1
	c0,2,0,4,0,6.1c0,0.1,0,0.1,0.1,0.2c0.6,0.5,1.4,1,2.1,1.4c1.2,0.6,2.4,1.1,3.6,1.4c1.1,0.3,2.2,0.5,3.3,0.6
	c1.1,0.1,2.2,0.2,3.3,0.2c0.1,0,0.1,0,0.2,0C46.3,28.7,46.3,28.1,46.3,27.4z M9.1,24.9c0,1.2,1,2.1,2.1,2.1c1.2,0,2.1-1,2.1-2.1
	c0-1.2-1-2.1-2.1-2.1C10.1,22.8,9.1,23.7,9.1,24.9z M27.2,22.8c-1.2,0-2.1,1-2.1,2.1c0,1.2,1,2.1,2.1,2.1c1.2,0,2.1-1,2.1-2.1
	C29.3,23.7,28.4,22.8,27.2,22.8z M18,6.3c0,1,0.8,1.8,1.8,1.8c1,0,1.8-0.8,1.8-1.8c0-1-0.8-1.8-1.8-1.8C18.8,4.5,18,5.3,18,6.3z"/>
<g>
	<path class="st1" d="M52.9,3.7v3.6h-5.5v16.1h-4.6V7.3h-5.5V3.7H52.9z"/>
	<path class="st1" d="M59.3,16.1v7.3h-4.6V3.7h6.4c1.4,0,2.6,0.1,3.6,0.4c1,0.3,1.8,0.7,2.5,1.2c0.6,0.5,1.1,1.1,1.4,1.8
		c0.3,0.7,0.4,1.5,0.4,2.3c0,0.6-0.1,1.2-0.3,1.8c-0.2,0.6-0.4,1.1-0.8,1.6s-0.8,0.9-1.2,1.3c-0.5,0.4-1.1,0.7-1.7,0.9
		c0.3,0.2,0.6,0.3,0.9,0.6c0.3,0.2,0.5,0.5,0.7,0.8l4.2,6.8h-4.1c-0.8,0-1.3-0.3-1.6-0.9l-3.3-5.7c-0.1-0.3-0.3-0.4-0.5-0.5
		s-0.5-0.2-0.8-0.2H59.3z M59.3,12.9h1.8c0.6,0,1.1-0.1,1.6-0.2c0.4-0.2,0.8-0.4,1.1-0.7c0.3-0.3,0.5-0.6,0.6-1s0.2-0.8,0.2-1.2
		c0-0.9-0.3-1.5-0.8-2c-0.6-0.5-1.4-0.7-2.6-0.7h-1.8V12.9z"/>
	<path class="st1" d="M91,23.3h-3.5c-0.4,0-0.7-0.1-1-0.3c-0.3-0.2-0.4-0.4-0.5-0.7l-1.2-3.4h-7.5l-1.2,3.4
		c-0.1,0.3-0.3,0.5-0.5,0.7c-0.3,0.2-0.6,0.3-1,0.3h-3.6l7.6-19.7h4.7L91,23.3z M78.4,15.8h5.4L82,10.4c-0.1-0.3-0.3-0.7-0.4-1.2
		c-0.2-0.5-0.3-1-0.5-1.5c-0.1,0.5-0.3,1.1-0.4,1.5c-0.2,0.5-0.3,0.9-0.4,1.2L78.4,15.8z"/>
	<path class="st1" d="M97.6,23.3H93V3.7h4.6V23.3z"/>
	<path class="st1" d="M104.2,3.7c0.1,0,0.3,0.1,0.4,0.1c0.1,0,0.2,0.1,0.3,0.2c0.1,0.1,0.2,0.2,0.3,0.4l9.3,11.8
		c0-0.4-0.1-0.7-0.1-1.1c0-0.4,0-0.7,0-1V3.7h4v19.7h-2.4c-0.4,0-0.6-0.1-0.9-0.2c-0.2-0.1-0.5-0.3-0.7-0.6l-9.3-11.7
		c0,0.3,0,0.7,0.1,1c0,0.3,0,0.6,0,0.9v10.5h-4V3.7h2.4C103.9,3.7,104,3.7,104.2,3.7z"/>
</g>
<g>
	<path class="st0" d="M60.6,28.2c-0.1,0.1-0.2,0.3-0.3,0.3c-0.1,0.1-0.2,0.1-0.4,0.1c-0.1,0-0.3,0-0.5-0.1c-0.2-0.1-0.3-0.2-0.5-0.3
		s-0.4-0.2-0.7-0.3s-0.6-0.1-0.9-0.1c-0.6,0-1,0.1-1.3,0.4s-0.4,0.6-0.4,1c0,0.3,0.1,0.5,0.3,0.7c0.2,0.2,0.4,0.3,0.7,0.5
		c0.3,0.1,0.6,0.2,0.9,0.4c0.4,0.1,0.7,0.2,1.1,0.4c0.4,0.1,0.7,0.3,1.1,0.5c0.4,0.2,0.7,0.4,0.9,0.7s0.5,0.6,0.7,1
		c0.2,0.4,0.3,0.9,0.3,1.4c0,0.6-0.1,1.2-0.3,1.7c-0.2,0.5-0.5,1-0.9,1.4c-0.4,0.4-0.9,0.7-1.5,0.9c-0.6,0.2-1.3,0.3-2,0.3
		c-0.4,0-0.8,0-1.3-0.1c-0.4-0.1-0.8-0.2-1.2-0.4c-0.4-0.2-0.8-0.3-1.1-0.6s-0.7-0.4-0.9-0.7l0.9-1.4c0.1-0.1,0.2-0.2,0.3-0.3
		c0.1-0.1,0.3-0.1,0.4-0.1c0.2,0,0.4,0.1,0.6,0.2c0.2,0.1,0.4,0.2,0.6,0.4c0.2,0.1,0.5,0.3,0.8,0.4c0.3,0.1,0.7,0.2,1.1,0.2
		c0.6,0,1-0.1,1.3-0.4c0.3-0.2,0.5-0.6,0.5-1.2c0-0.3-0.1-0.6-0.3-0.8c-0.2-0.2-0.4-0.4-0.7-0.5c-0.3-0.1-0.6-0.2-0.9-0.3
		c-0.4-0.1-0.7-0.2-1.1-0.3c-0.4-0.1-0.7-0.3-1.1-0.4c-0.4-0.2-0.7-0.4-0.9-0.7c-0.3-0.3-0.5-0.6-0.7-1.1c-0.2-0.4-0.3-0.9-0.3-1.6
		c0-0.5,0.1-1,0.3-1.5s0.5-0.9,0.9-1.3c0.4-0.4,0.9-0.7,1.4-0.9c0.6-0.2,1.2-0.3,1.9-0.3c0.4,0,0.8,0,1.2,0.1
		c0.4,0.1,0.8,0.2,1.1,0.3c0.3,0.1,0.7,0.3,1,0.4c0.3,0.2,0.6,0.4,0.8,0.6L60.6,28.2z"/>
	<path class="st0" d="M72,35.3c0.1,0,0.1,0,0.2,0c0.1,0,0.1,0.1,0.2,0.1l1.2,1.3c-0.5,0.7-1.2,1.2-2,1.6c-0.8,0.4-1.8,0.5-2.9,0.5
		c-1,0-1.9-0.2-2.7-0.5c-0.8-0.3-1.5-0.8-2-1.4s-1-1.3-1.3-2.2c-0.3-0.8-0.4-1.7-0.4-2.7c0-1,0.2-1.9,0.5-2.7
		c0.3-0.8,0.8-1.5,1.4-2.1c0.6-0.6,1.3-1.1,2.2-1.4c0.9-0.3,1.8-0.5,2.8-0.5c0.5,0,1,0,1.4,0.1s0.9,0.2,1.2,0.4
		c0.4,0.2,0.7,0.3,1.1,0.6c0.3,0.2,0.6,0.5,0.9,0.7l-1,1.4c-0.1,0.1-0.1,0.2-0.2,0.2c-0.1,0.1-0.2,0.1-0.4,0.1c-0.1,0-0.2,0-0.3-0.1
		c-0.1,0-0.2-0.1-0.3-0.2c-0.1-0.1-0.2-0.1-0.4-0.2c-0.1-0.1-0.3-0.2-0.5-0.2c-0.2-0.1-0.4-0.1-0.6-0.2s-0.5-0.1-0.8-0.1
		c-0.6,0-1.1,0.1-1.5,0.3c-0.5,0.2-0.9,0.5-1.2,0.8c-0.3,0.4-0.6,0.8-0.8,1.3c-0.2,0.5-0.3,1.1-0.3,1.8c0,0.7,0.1,1.3,0.3,1.8
		c0.2,0.5,0.4,1,0.8,1.3s0.7,0.6,1.1,0.8s0.9,0.3,1.4,0.3c0.3,0,0.5,0,0.8,0s0.4-0.1,0.6-0.1c0.2-0.1,0.4-0.2,0.6-0.3
		c0.2-0.1,0.4-0.2,0.5-0.4c0.1-0.1,0.2-0.1,0.2-0.2C71.8,35.3,71.9,35.3,72,35.3z"/>
	<path class="st0" d="M86.7,38.8h-3.1v-5.6h-5.4v5.6h-3.1V25.5h3.1V31h5.4v-5.6h3.1V38.8z"/>
	<path class="st0" d="M97.4,25.5v2.4h-5.5v3.1h4.2v2.3h-4.2v3.2h5.5v2.4h-8.6V25.5H97.4z"/>
	<path class="st0" d="M111.2,32.1c0,1-0.2,1.8-0.5,2.7s-0.8,1.5-1.4,2.1c-0.6,0.6-1.3,1.1-2.2,1.4c-0.8,0.3-1.8,0.5-2.8,0.5h-5.2
		V25.5h5.2c1,0,2,0.2,2.8,0.5c0.8,0.3,1.6,0.8,2.2,1.4c0.6,0.6,1.1,1.3,1.4,2.1S111.2,31.2,111.2,32.1z M108,32.1
		c0-0.7-0.1-1.2-0.3-1.8c-0.2-0.5-0.4-1-0.7-1.3c-0.3-0.4-0.7-0.7-1.2-0.8c-0.5-0.2-1-0.3-1.6-0.3h-2.1v8.5h2.1
		c0.6,0,1.1-0.1,1.6-0.3c0.5-0.2,0.9-0.5,1.2-0.8c0.3-0.4,0.6-0.8,0.7-1.3C108,33.4,108,32.8,108,32.1z"/>
	<path class="st0" d="M118.2,36.3c0.4,0,0.8-0.1,1.1-0.2c0.3-0.1,0.6-0.3,0.8-0.6c0.2-0.3,0.4-0.6,0.5-0.9c0.1-0.4,0.2-0.8,0.2-1.3
		v-7.9h3.1v7.9c0,0.8-0.1,1.6-0.4,2.2c-0.3,0.7-0.6,1.3-1.1,1.8s-1.1,0.9-1.8,1.1c-0.7,0.3-1.5,0.4-2.4,0.4c-0.9,0-1.7-0.1-2.4-0.4
		s-1.3-0.7-1.8-1.1c-0.5-0.5-0.9-1.1-1.1-1.8c-0.3-0.7-0.4-1.4-0.4-2.2v-7.9h3.1v7.9c0,0.5,0.1,0.9,0.2,1.3c0.1,0.4,0.3,0.7,0.5,0.9
		c0.2,0.3,0.5,0.5,0.8,0.6C117.4,36.2,117.8,36.3,118.2,36.3z"/>
	<path class="st0" d="M129,36.3h4.9v2.5h-8V25.5h3.1V36.3z"/>
	<path class="st0" d="M143.9,25.5v2.4h-5.5v3.1h4.2v2.3h-4.2v3.2h5.5v2.4h-8.6V25.5H143.9z"/>
	<path class="st0" d="M148.8,33.8v4.9h-3.1V25.5h4.3c1,0,1.8,0.1,2.5,0.3c0.7,0.2,1.2,0.5,1.7,0.8c0.4,0.4,0.7,0.8,0.9,1.2
		c0.2,0.5,0.3,1,0.3,1.6c0,0.4-0.1,0.8-0.2,1.2c-0.1,0.4-0.3,0.7-0.5,1.1c-0.2,0.3-0.5,0.6-0.8,0.9c-0.3,0.3-0.7,0.5-1.1,0.6
		c0.2,0.1,0.4,0.2,0.6,0.4c0.2,0.2,0.3,0.3,0.5,0.6l2.8,4.6h-2.8c-0.5,0-0.9-0.2-1.1-0.6l-2.2-3.9c-0.1-0.2-0.2-0.3-0.3-0.4
		c-0.1-0.1-0.3-0.1-0.6-0.1H148.8z M148.8,31.7h1.2c0.4,0,0.8-0.1,1.1-0.2s0.5-0.3,0.7-0.4s0.3-0.4,0.4-0.7c0.1-0.3,0.1-0.5,0.1-0.8
		c0-0.6-0.2-1-0.6-1.4s-1-0.5-1.8-0.5h-1.2V31.7z"/>
</g>
</svg>
